<?xml version="1.0" ?>
<svg xmlns="http://www.w3.org/2000/svg" version="1.1" viewBox="0 0 16 16">
	<path fill="#dd4b39" d="M 15.500677,0.208 H 0.4993225 C 0.2234275,0.208 -5e-7,0.431428 -5e-7,0.70707 v 14.643353 c 0,0.276149 0.223428,0.499577 0.499323,0.499577 H 15.500676 c 0.275895,0 0.499323,-0.223555 0.499323,-0.499577 V 0.707196 C 15.999999,0.431428 15.776446,0.208 15.500676,0.208 z"/>
	<path fill="#ffffff" d="M 8.3991405,8.792306 7.8943685,8.400324 C 7.7406435,8.272832 7.5303955,8.104532 7.5303955,7.796447 c 0,-0.309352 0.210248,-0.50604 0.392741,-0.688154 0.588035,-0.462824 1.175563,-0.955431 1.175563,-1.993491 0,-1.067462 -0.671678,-1.629011 -0.993576,-1.895401 h 0.867985 l 0.911074,-0.572448 h -2.760089 c -0.757348,0 -1.848762,0.179199 -2.647805,0.838838 -0.602229,0.519601 -0.895993,1.236016 -0.895993,1.880954 0,1.094836 0.840611,2.204626 2.32502,2.204626 0.140165,0 0.29351,-0.01381 0.447869,-0.02813 -0.06932,0.16868 -0.139405,0.309099 -0.139405,0.547481 0,0.434817 0.223428,0.701461 0.420369,0.954037 -0.630743,0.04334 -1.808207,0.113172 -2.676192,0.646713 -0.826671,0.491593 -1.078233,1.20712 -1.078233,1.712147 0,1.039454 0.979762,2.007685 3.011398,2.007685 2.409169,0 3.684596,-1.333092 3.684596,-2.65275 1.27e-4,-0.969625 -0.560027,-1.446897 -1.176577,-1.966244 z m -1.834947,-1.61431 c -1.205219,0 -1.751179,-1.558041 -1.751179,-2.498138 0,-0.366001 0.06932,-0.743915 0.307705,-1.039074 0.224695,-0.281091 0.616042,-0.463458 0.98141,-0.463458 1.161876,0 1.764485,1.571981 1.764485,2.583048 0,0.252957 -0.02788,0.701207 -0.350033,1.02526 -0.225329,0.224822 -0.602356,0.392362 -0.952388,0.392362 z m 0.01381,5.645015 c -1.498729,0 -2.465184,-0.716922 -2.465184,-1.713794 0,-0.996619 0.896119,-1.333726 1.204458,-1.445377 0.588035,-0.197828 1.344749,-0.225456 1.470974,-0.225456 0.140039,0 0.210121,0 0.321645,0.01407 1.065433,0.758236 1.527877,1.13615 1.527877,1.853959 0,0.869254 -0.71464,1.5166 -2.05977,1.5166 z"/>
	<rect fill="#ffffff" width="0.71179885" height="3.5280466" x="11.210831" y="5.7543521"/>
	<rect fill="#ffffff" width="3.4970989" height="0.71179903" x="9.8413935" y="7.1566734"/>
</svg> 